<svg width="24" height="24" viewBox="0 0 24 24" fill="none" xmlns="http://www.w3.org/2000/svg">
<mask id="mask0_960_27748" style="mask-type:alpha" maskUnits="userSpaceOnUse" x="0" y="0" width="24" height="24">
<rect width="24" height="24" fill="#D9D9D9"/>
</mask>
<g mask="url(#mask0_960_27748)">
<path d="M12.0595 18.7885L14.6885 16.175L12.0595 13.5615L11.2213 14.4L12.45 15.6288C11.8295 15.6391 11.2583 15.5561 10.7365 15.3798C10.2147 15.2036 9.77558 14.9373 9.41925 14.5808C9.06658 14.2283 8.79958 13.8257 8.61825 13.373C8.43692 12.9205 8.34625 12.468 8.34625 12.0155C8.34625 11.7322 8.3805 11.4488 8.449 11.1655C8.51767 10.8822 8.61542 10.6103 8.74225 10.35L7.85375 9.5C7.61542 9.88467 7.43917 10.2882 7.325 10.7105C7.21083 11.1328 7.15375 11.5627 7.15375 12C7.15375 12.6138 7.274 13.2195 7.5145 13.817C7.75483 14.4147 8.10867 14.9488 8.576 15.4193C9.04333 15.8898 9.61067 16.241 10.278 16.473C10.9452 16.7052 11.6308 16.8263 12.3348 16.8365L11.2213 17.95L12.0595 18.7885ZM16.1557 14.5C16.3942 14.1153 16.5705 13.7118 16.6845 13.2895C16.7987 12.8672 16.8558 12.4373 16.8558 12C16.8558 11.3873 16.7381 10.7786 16.5027 10.1738C16.2676 9.56908 15.9148 9.033 15.4443 8.5655C14.9801 8.095 14.4112 7.74625 13.7375 7.51925C13.0638 7.29225 12.3763 7.17875 11.675 7.17875L12.7885 6.05L11.95 5.2115L9.32125 7.825L11.95 10.4385L12.7885 9.6L11.5442 8.35575C12.1544 8.35575 12.7282 8.44642 13.2655 8.62775C13.8027 8.80925 14.2452 9.07425 14.5932 9.42275C14.9412 9.77142 15.2067 10.1723 15.3895 10.6253C15.5722 11.0784 15.6635 11.5315 15.6635 11.9845C15.6635 12.2678 15.6292 12.5512 15.5605 12.8345C15.492 13.1178 15.3942 13.3897 15.2673 13.65L16.1557 14.5ZM12.0017 21.5C10.6877 21.5 9.45267 21.2507 8.2965 20.752C7.14033 20.2533 6.13467 19.5766 5.2795 18.7218C4.42433 17.8669 3.74725 16.8617 3.24825 15.706C2.74942 14.5503 2.5 13.3156 2.5 12.0017C2.5 10.6877 2.74933 9.45267 3.248 8.2965C3.74667 7.14033 4.42342 6.13467 5.27825 5.2795C6.13308 4.42433 7.13833 3.74725 8.294 3.24825C9.44967 2.74942 10.6844 2.5 11.9983 2.5C13.3123 2.5 14.5473 2.74933 15.7035 3.248C16.8597 3.74667 17.8653 4.42342 18.7205 5.27825C19.5757 6.13308 20.2528 7.13833 20.7518 8.294C21.2506 9.44967 21.5 10.6844 21.5 11.9983C21.5 13.3123 21.2507 14.5473 20.752 15.7035C20.2533 16.8597 19.5766 17.8653 18.7218 18.7205C17.8669 19.5757 16.8617 20.2528 15.706 20.7518C14.5503 21.2506 13.3156 21.5 12.0017 21.5ZM12 20C14.2333 20 16.125 19.225 17.675 17.675C19.225 16.125 20 14.2333 20 12C20 9.76667 19.225 7.875 17.675 6.325C16.125 4.775 14.2333 4 12 4C9.76667 4 7.875 4.775 6.325 6.325C4.775 7.875 4 9.76667 4 12C4 14.2333 4.775 16.125 6.325 17.675C7.875 19.225 9.76667 20 12 20Z" fill="#262626"/>
</g>
</svg>
